<?xml version="1.0" standalone="no"?>
<!DOCTYPE svg PUBLIC "-//W3C//DTD SVG 20010904//EN"
 "http://www.w3.org/TR/2001/REC-SVG-20010904/DTD/svg10.dtd">
<svg version="1.0" xmlns="http://www.w3.org/2000/svg"
 width="534.000000pt" height="534.000000pt" viewBox="0 0 534.000000 534.000000"
 preserveAspectRatio="xMidYMid meet">
<metadata>
Created by potrace 1.14, written by Peter Selinger 2001-2017
</metadata>
<g transform="translate(0.000000,534.000000) scale(0.100000,-0.100000)"
fill="#000000" stroke="none">
<path d="M928 4815 c-2 -2 -21 -5 -43 -8 -101 -12 -232 -77 -309 -153 -88 -85
-160 -213 -192 -339 -21 -84 -23 -244 -4 -330 8 -33 14 -64 15 -70 0 -5 -21
-30 -48 -54 -102 -93 -168 -298 -171 -536 -2 -94 16 -239 44 -365 6 -25 12
-54 15 -65 8 -42 55 -193 83 -270 154 -418 376 -769 677 -1071 97 -98 214
-203 280 -252 6 -4 44 -33 85 -63 274 -204 601 -387 910 -511 235 -94 530
-177 695 -194 17 -2 62 -6 100 -10 317 -34 634 32 860 178 58 37 140 120 171
173 15 26 32 44 39 41 24 -9 150 -44 180 -50 17 -4 41 -9 55 -12 14 -3 88 -8
165 -10 226 -6 348 33 467 148 81 78 148 197 162 288 33 205 -36 451 -162 576
-30 30 -61 54 -68 54 -8 0 -14 3 -14 8 0 12 -121 55 -220 79 -19 5 -35 13 -35
18 -1 20 -29 92 -58 149 -58 117 -126 193 -235 260 -45 28 -68 41 -167 96 -33
18 -66 37 -72 43 -7 5 -13 6 -13 2 0 -4 -6 -3 -12 2 -7 6 -53 32 -103 58 -75
40 -290 162 -354 200 -218 132 -377 240 -631 429 -202 150 -415 372 -608 631
-4 6 -45 62 -92 125 -108 146 -125 167 -230 270 -124 123 -229 179 -367 198
-76 10 -117 8 -173 -12 -24 -8 -44 -14 -45 -13 0 1 -12 27 -28 57 -69 139
-252 271 -408 295 -51 8 -137 14 -141 10z"/>
</g>
</svg>
